<svg xmlns="http://www.w3.org/2000/svg" viewBox="0 0 409.49 408.9"><g id="Layer_2" data-name="Layer 2"><g id="Layer_1-2" data-name="Layer 1"><path d="M131.71,69.83l42.95,73.55c20-9.14,39.93-9.27,60.1,0l36.91-67.57c-21.79-15.39-23.44-40.65-12.12-57.56C270.47,1.94,293-4.43,310.08,3.62,329,12.55,341,34.92,330.44,59c6.07,3.47,12.16,7,18.27,10.46s12,6.85,18,10.22C382.19,72.3,395,74.5,404,86c7.5,9.56,7.24,23.74-.61,33.27-8.12,9.86-21.83,13-32.84,7.53C357.16,120.16,353,108.6,357.53,90.2L322.32,70.09c-10.68,9.56-23.14,13.62-37.83,10.73l-38.12,69.74c15.94,12.86,24.77,29.4,26.49,49.83L329.93,232A27.08,27.08,0,0,1,353,225.47a25.8,25.8,0,0,1,15.11,8.34c8.72,9.62,9.62,24.16,2.16,34.21a27.42,27.42,0,0,1-33.15,9.08c-9.8-4.39-19.66-16.17-14.89-33.71l-50.14-27.81c-4,20.43-14.63,36.17-32.37,47.36,3.9,21.43,7.79,42.84,11.75,64.6,13.08,2.47,23.4,9.12,30,20.88A39.22,39.22,0,0,1,286,375c-3.24,18.42-19.19,32.72-37.43,33.8-16.47,1-38.07-8.16-43.7-35.53l-65.5-17.86c-12.6,13.36-24.87,16.07-37.62,8.49C91,357.54,86.3,344.42,90.33,332a27.27,27.27,0,0,1,29.12-18.11c13.29,1.45,21.8,11.2,24.14,28.61l61.92,16.89c4.67-16.31,15-27.1,32.17-31.43q-5.35-29.4-10.7-58.66c-33.73,8.86-60.3-1-80.81-29.31L81.6,257.49c-2.66,14.35-10.1,25.42-23.71,31.74a39.38,39.38,0,0,1-26.1,2.8A41.26,41.26,0,0,1,0,250.89C.47,232.18,14.8,215.41,33.6,212c17.84-3.2,40.13,5.55,47.54,31.45l59.23-16.11c-4.46-14-5.18-28-1-42s12.31-25.49,23.76-34.74L120.54,77.83C96.39,88.33,74,76.39,65.36,58.28A40.46,40.46,0,0,1,78.65,7.87c15.79-11.42,36.93-10.7,52.31,4C143.24,23.68,150.91,47,131.71,69.83Zm32.22,132.69c0,.67,0,1.33,0,2,.23,3.79,2.6,6.35,6.12,6.65s6.28-1.73,7.18-5.49a29.67,29.67,0,0,0,.43-3.55,26.68,26.68,0,0,1,5.64-14.22c5.36-6.77,12.43-10.05,21-10.62,4.82-.32,7.41-3.27,7.09-7.38-.31-3.91-3.16-6.18-7.83-6.15a37.16,37.16,0,0,0-19.64,5.78C171.69,177.13,165,188.16,163.93,202.52Z" fill="white"/></g></g></svg>
